<?xml version="1.0" encoding="UTF-8"?>
<!DOCTYPE svg PUBLIC "-//W3C//DTD SVG 1.1//EN" "http://www.w3.org/Graphics/SVG/1.1/DTD/svg11.dtd">
<svg xmlns="http://www.w3.org/2000/svg" version="1.1" width="128px" height="128px" style="shape-rendering:geometricPrecision; text-rendering:geometricPrecision; image-rendering:optimizeQuality; fill-rule:evenodd; clip-rule:evenodd" xmlns:xlink="http://www.w3.org/1999/xlink">
<g><path style="opacity:1" fill="#d8a100" d="M 61.5,35.5 C 59.8089,36.8637 58.1423,38.197 56.5,39.5C 54.847,39.6596 53.5137,40.3263 52.5,41.5C 51.8333,41.5 51.1667,41.5 50.5,41.5C 41.9174,44.6432 33.5841,44.1432 25.5,40C 24.8366,38.4815 23.8366,37.3149 22.5,36.5C 22.5,35.1667 22.5,33.8333 22.5,32.5C 28.7885,39.0699 36.4552,41.2365 45.5,39C 52.8323,38.0214 57.8323,34.188 60.5,27.5C 60.3333,26.8333 60.1667,26.1667 60,25.5C 54.78,32.6898 47.6133,36.0231 38.5,35.5C 31.8535,35.837 26.5201,33.5037 22.5,28.5C 22.3379,26.4727 22.5045,24.4727 23,22.5C 32.7253,13.3075 43.892,11.1409 56.5,16C 57.6667,17.1667 58.8333,18.3333 60,19.5C 61.339,24.7364 61.839,30.0698 61.5,35.5 Z"/></g>
<g><path style="opacity:1" fill="#f8d100" d="M 39.5,15.5 C 46.3239,14.8295 52.1572,16.8295 57,21.5C 57.6497,26.0273 55.8163,29.194 51.5,31C 43.7801,34.2387 36.1135,34.2387 28.5,31C 26.0092,28.0316 25.8426,24.8649 28,21.5C 31.5748,18.7976 35.4081,16.7976 39.5,15.5 Z"/></g>
<g><path style="opacity:1" fill="#dda800" d="M 37.5,19.5 C 39.4644,22.5626 42.2977,24.8959 46,26.5C 47.0113,25.6634 48.1779,25.33 49.5,25.5C 49.33,26.8221 49.6634,27.9887 50.5,29C 44.749,30.2492 39.4157,29.4159 34.5,26.5C 33.5344,24.604 33.2011,22.604 33.5,20.5C 35.099,20.7678 36.4324,20.4345 37.5,19.5 Z"/></g>
<g><path style="opacity:1" fill="#16b867" d="M 126.5,46.5 C 126.631,47.3764 126.298,48.0431 125.5,48.5C 116.806,53.5117 108.139,58.5117 99.5,63.5C 99.1667,63.5 98.8333,63.5 98.5,63.5C 97.5,62.8333 96.5,62.1667 95.5,61.5C 103.127,56.8951 110.794,52.2284 118.5,47.5C 107.464,40.6343 96.2975,33.9677 85,27.5C 76.9965,32.03 69.1631,36.6967 61.5,41.5C 59.8333,40.8333 58.1667,40.1667 56.5,39.5C 58.1423,38.197 59.8089,36.8637 61.5,35.5C 69.0807,30.7911 76.9141,26.4578 85,22.5C 99.1254,30.1411 112.959,38.1411 126.5,46.5 Z"/></g>
<g><path style="opacity:1" fill="#c97f00" d="M 22.5,32.5 C 22.5,31.1667 22.5,29.8333 22.5,28.5C 26.5201,33.5037 31.8535,35.837 38.5,35.5C 47.6133,36.0231 54.78,32.6898 60,25.5C 60.1667,26.1667 60.3333,26.8333 60.5,27.5C 57.8323,34.188 52.8323,38.0214 45.5,39C 36.4552,41.2365 28.7885,39.0699 22.5,32.5 Z"/></g>
<g><path style="opacity:1" fill="#f1dfbd" d="M 95.5,61.5 C 93.6316,60.7368 91.9649,59.7368 90.5,58.5C 96.545,56.3097 102.212,53.3097 107.5,49.5C 105.525,48.2507 105.191,46.7507 106.5,45C 99.3251,38.746 90.9918,35.246 81.5,34.5C 75.4028,36.8676 70.0695,40.201 65.5,44.5C 64.1283,43.4884 62.795,42.4884 61.5,41.5C 69.1631,36.6967 76.9965,32.03 85,27.5C 96.2975,33.9677 107.464,40.6343 118.5,47.5C 110.794,52.2284 103.127,56.8951 95.5,61.5 Z"/></g>
<g><path style="opacity:1" fill="#12a966" d="M 90.5,58.5 C 82.1667,53.8333 73.8333,49.1667 65.5,44.5C 70.0695,40.201 75.4028,36.8676 81.5,34.5C 90.9918,35.246 99.3251,38.746 106.5,45C 105.191,46.7507 105.525,48.2507 107.5,49.5C 102.212,53.3097 96.545,56.3097 90.5,58.5 Z"/></g>
<g><path style="opacity:1" fill="#c87f01" d="M 22.5,36.5 C 23.8366,37.3149 24.8366,38.4815 25.5,40C 33.5841,44.1432 41.9174,44.6432 50.5,41.5C 47.5063,43.9998 44.173,45.9998 40.5,47.5C 32.7372,48.4794 26.7372,45.8127 22.5,39.5C 22.5,38.5 22.5,37.5 22.5,36.5 Z"/></g>
<g><path style="opacity:1" fill="#f5d19b" d="M 56.5,39.5 C 58.1667,40.1667 59.8333,40.8333 61.5,41.5C 62.795,42.4884 64.1283,43.4884 65.5,44.5C 73.8333,49.1667 82.1667,53.8333 90.5,58.5C 91.9649,59.7368 93.6316,60.7368 95.5,61.5C 96.5,62.1667 97.5,62.8333 98.5,63.5C 97.7095,64.4013 96.7095,65.0679 95.5,65.5C 95.1667,65.5 94.8333,65.5 94.5,65.5C 80.5,57.5 66.5,49.5 52.5,41.5C 53.5137,40.3263 54.847,39.6596 56.5,39.5 Z"/></g>
<g><path style="opacity:1" fill="#f9dfbe" d="M 50.5,41.5 C 51.1667,41.5 51.8333,41.5 52.5,41.5C 66.5,49.5 80.5,57.5 94.5,65.5C 88.1728,69.9998 81.5062,73.9998 74.5,77.5C 59.7675,70.1443 45.7675,61.811 32.5,52.5C 33.1667,52.1667 33.8333,51.8333 34.5,51.5C 36.7952,50.5254 38.7952,49.1921 40.5,47.5C 44.173,45.9998 47.5063,43.9998 50.5,41.5 Z"/></g>
<g><path style="opacity:1" fill="#d79f03" d="M 22.5,39.5 C 26.7372,45.8127 32.7372,48.4794 40.5,47.5C 38.7952,49.1921 36.7952,50.5254 34.5,51.5C 29.5094,50.3368 25.5094,47.6701 22.5,43.5C 22.5,42.1667 22.5,40.8333 22.5,39.5 Z"/></g>
<g><path style="opacity:1" fill="#e7ddba" d="M 83.5,43.5 C 85.8273,43.2471 87.8273,43.9137 89.5,45.5C 88.3073,47.3837 86.6406,47.8837 84.5,47C 83.6634,45.9887 83.33,44.8221 83.5,43.5 Z"/></g>
<g><path style="opacity:1" fill="#c98100" d="M 22.5,43.5 C 25.5094,47.6701 29.5094,50.3368 34.5,51.5C 33.8333,51.8333 33.1667,52.1667 32.5,52.5C 31.8333,52.8333 31.1667,53.1667 30.5,53.5C 27.3189,52.6515 24.6523,50.9848 22.5,48.5C 22.5,46.8333 22.5,45.1667 22.5,43.5 Z"/></g>
<g><path style="opacity:1" fill="#e2be91" d="M 50.5,46.5 C 62.6004,52.3842 74.267,59.0509 85.5,66.5C 83.6806,68.9114 81.6806,69.078 79.5,67C 69.3304,60.7475 58.9971,54.7475 48.5,49C 49.3805,48.2917 50.0472,47.4584 50.5,46.5 Z"/></g>
<g><path style="opacity:1" fill="#d8a403" d="M 22.5,48.5 C 24.6523,50.9848 27.3189,52.6515 30.5,53.5C 29.8333,54.1667 29.1667,54.8333 28.5,55.5C 27.391,55.5569 26.391,55.8902 25.5,56.5C 23.0156,54.4548 22.0156,51.7882 22.5,48.5 Z"/></g>
<g><path style="opacity:1" fill="#f6d29b" d="M 32.5,52.5 C 45.7675,61.811 59.7675,70.1443 74.5,77.5C 74.5,77.8333 74.5,78.1667 74.5,78.5C 73.1667,78.8333 71.8333,79.1667 70.5,79.5C 70.1667,79.5 69.8333,79.5 69.5,79.5C 68.8333,79.1667 68.1667,78.8333 67.5,78.5C 65.7798,77.6923 64.1131,76.6923 62.5,75.5C 53.634,70.2342 44.634,65.2342 35.5,60.5C 34.205,59.5116 32.8717,58.5116 31.5,57.5C 30.2905,57.0679 29.2905,56.4013 28.5,55.5C 29.1667,54.8333 29.8333,54.1667 30.5,53.5C 31.1667,53.1667 31.8333,52.8333 32.5,52.5 Z"/></g>
<g><path style="opacity:1" fill="#e2be91" d="M 47.5,53.5 C 56.6712,57.6814 65.3379,62.6814 73.5,68.5C 72.7579,69.2868 71.9246,69.9535 71,70.5C 62.5823,65.3739 54.0823,60.3739 45.5,55.5C 46.2427,54.8182 46.9094,54.1515 47.5,53.5 Z"/></g>
<g><path style="opacity:1" fill="#009e60" d="M 126.5,46.5 C 126.833,46.5 127.167,46.5 127.5,46.5C 127.5,52.5 127.5,58.5 127.5,64.5C 118.424,70.2332 109.091,75.5665 99.5,80.5C 99.5,74.8333 99.5,69.1667 99.5,63.5C 108.139,58.5117 116.806,53.5117 125.5,48.5C 126.298,48.0431 126.631,47.3764 126.5,46.5 Z"/></g>
<g><path style="opacity:1" fill="#17ba67" d="M 28.5,55.5 C 29.2905,56.4013 30.2905,57.0679 31.5,57.5C 24.6028,62.5334 17.2695,67.0334 9.5,71C 9.16667,71.3333 8.83333,71.6667 8.5,72C 19.6008,78.633 30.7675,85.133 42,91.5C 50.4271,86.8772 58.9271,82.5439 67.5,78.5C 68.1667,78.8333 68.8333,79.1667 69.5,79.5C 69.0472,80.4584 68.3805,81.2917 67.5,82C 59.1392,86.845 50.8059,91.6784 42.5,96.5C 42.1667,96.5 41.8333,96.5 41.5,96.5C 27.7403,88.0723 13.7403,80.0723 -0.5,72.5C -0.5,72.1667 -0.5,71.8333 -0.5,71.5C 8.16667,66.5 16.8333,61.5 25.5,56.5C 26.391,55.8902 27.391,55.5569 28.5,55.5 Z"/></g>
<g><path style="opacity:1" fill="#f0dfbd" d="M 31.5,57.5 C 32.8717,58.5116 34.205,59.5116 35.5,60.5C 30.0534,63.4402 24.7201,66.6069 19.5,70C 21.6576,71.3117 21.9909,72.9783 20.5,75C 25.1667,77.6667 29.8333,80.3333 34.5,83C 38.4158,83.051 42.2492,83.8843 46,85.5C 51.6468,82.2666 57.1468,78.9333 62.5,75.5C 64.1131,76.6923 65.7798,77.6923 67.5,78.5C 58.9271,82.5439 50.4271,86.8772 42,91.5C 30.7675,85.133 19.6008,78.633 8.5,72C 8.83333,71.6667 9.16667,71.3333 9.5,71C 17.2695,67.0334 24.6028,62.5334 31.5,57.5 Z"/></g>
<g><path style="opacity:1" fill="#16a966" d="M 35.5,60.5 C 44.634,65.2342 53.634,70.2342 62.5,75.5C 57.1468,78.9333 51.6468,82.2666 46,85.5C 42.2492,83.8843 38.4158,83.051 34.5,83C 29.8333,80.3333 25.1667,77.6667 20.5,75C 21.9909,72.9783 21.6576,71.3117 19.5,70C 24.7201,66.6069 30.0534,63.4402 35.5,60.5 Z"/></g>
<g><path style="opacity:1" fill="#d4a78b" d="M 98.5,63.5 C 98.8333,63.5 99.1667,63.5 99.5,63.5C 99.5,69.1667 99.5,74.8333 99.5,80.5C 98.4863,81.6737 97.153,82.3404 95.5,82.5C 95.5,76.8333 95.5,71.1667 95.5,65.5C 96.7095,65.0679 97.7095,64.4013 98.5,63.5 Z"/></g>
<g><path style="opacity:1" fill="#f6c69b" d="M 94.5,65.5 C 94.8333,65.5 95.1667,65.5 95.5,65.5C 95.5,71.1667 95.5,76.8333 95.5,82.5C 88.9965,87.2552 81.9965,91.2552 74.5,94.5C 74.5,89.1667 74.5,83.8333 74.5,78.5C 74.5,78.1667 74.5,77.8333 74.5,77.5C 81.5062,73.9998 88.1728,69.9998 94.5,65.5 Z"/></g>
<g><path style="opacity:1" fill="#eadeba" d="M 35.5,71.5 C 38.0728,71.1485 40.4062,71.6485 42.5,73C 40.728,74.4868 38.728,74.8201 36.5,74C 35.7476,73.3292 35.4142,72.4959 35.5,71.5 Z"/></g>
<g><path style="opacity:1" fill="#007a6b" d="M -0.5,72.5 C 13.7403,80.0723 27.7403,88.0723 41.5,96.5C 41.6495,97.552 41.4828,98.552 41,99.5C 27.2853,91.3894 13.452,83.3894 -0.5,75.5C -0.5,74.5 -0.5,73.5 -0.5,72.5 Z"/></g>
<g><path style="opacity:1" fill="#dda78d" d="M 74.5,78.5 C 74.5,83.8333 74.5,89.1667 74.5,94.5C 74.0269,95.9063 73.0269,96.573 71.5,96.5C 70.5111,91.0247 70.1778,85.358 70.5,79.5C 71.8333,79.1667 73.1667,78.8333 74.5,78.5 Z"/></g>
<g><path style="opacity:1" fill="#00786c" d="M -0.5,78.5 C 13.1393,86.3215 26.8059,94.1549 40.5,102C 41.5536,103.388 41.7203,104.888 41,106.5C 27.5604,97.9104 13.7271,89.9104 -0.5,82.5C -0.5,81.1667 -0.5,79.8333 -0.5,78.5 Z"/></g>
<g><path style="opacity:1" fill="#008c79" d="M -0.5,75.5 C 13.452,83.3894 27.2853,91.3894 41,99.5C 41.4828,98.552 41.6495,97.552 41.5,96.5C 41.8333,96.5 42.1667,96.5 42.5,96.5C 42.1786,102.026 42.5119,107.36 43.5,112.5C 43.1583,113.338 42.4916,113.672 41.5,113.5C 41.7135,111.856 41.3802,110.356 40.5,109C 26.8993,100.865 13.2326,93.0315 -0.5,85.5C -0.5,84.5 -0.5,83.5 -0.5,82.5C 13.7271,89.9104 27.5604,97.9104 41,106.5C 41.7203,104.888 41.5536,103.388 40.5,102C 26.8059,94.1549 13.1393,86.3215 -0.5,78.5C -0.5,77.5 -0.5,76.5 -0.5,75.5 Z"/></g>
<g><path style="opacity:1" fill="#00766a" d="M -0.5,85.5 C 13.2326,93.0315 26.8993,100.865 40.5,109C 41.3802,110.356 41.7135,111.856 41.5,113.5C 27.7574,105.1 13.7574,97.1001 -0.5,89.5C -0.5,88.1667 -0.5,86.8333 -0.5,85.5 Z"/></g>
<g><path style="opacity:1" fill="#019e60" d="M 69.5,79.5 C 69.8333,79.5 70.1667,79.5 70.5,79.5C 70.1778,85.358 70.5111,91.0247 71.5,96.5C 62.5002,102.336 53.1669,107.669 43.5,112.5C 42.5119,107.36 42.1786,102.026 42.5,96.5C 50.8059,91.6784 59.1392,86.845 67.5,82C 68.3805,81.2917 69.0472,80.4584 69.5,79.5 Z"/></g>
</svg>
