<?xml version="1.0" encoding="UTF-8"?>
<svg version="1.1" xmlns="http://www.w3.org/2000/svg" width="128" height="128">
<path d="M0 0 C3.69465673 3.02290096 6.23041637 5.6912491 7.75 10.25 C8.31384129 15.94262838 8.05719906 20.39944138 4.75 25.25 C2.32354537 27.63763135 -0.18696175 29.71848088 -3.25 31.25 C-2.68152344 31.32476562 -2.11304688 31.39953125 -1.52734375 31.4765625 C4.64785979 32.52809966 8.65209065 34.44863482 12.75 39.25 C17.08334918 46.57186586 18.45347433 56.84290519 17.75 65.25 C16.52880859 67.39562988 16.52880859 67.39562988 14.75 69.25 C12.5871582 69.75793457 12.5871582 69.75793457 10.05078125 69.76757812 C9.09969482 69.78018677 8.1486084 69.79279541 7.16870117 69.80578613 C6.14365479 69.79768921 5.1186084 69.78959229 4.0625 69.78125 C2.48142456 69.78699036 2.48142456 69.78699036 0.8684082 69.79284668 C-1.36084955 69.79556951 -3.59013906 69.78818248 -5.81933594 69.77148438 C-9.23705077 69.75008109 -12.65266327 69.77127463 -16.0703125 69.796875 C-18.23437965 69.79423179 -20.3984455 69.78910696 -22.5625 69.78125 C-23.58754639 69.78934692 -24.61259277 69.79744385 -25.66870117 69.80578613 C-26.6197876 69.79317749 -27.57087402 69.78056885 -28.55078125 69.76757812 C-29.38778564 69.76439575 -30.22479004 69.76121338 -31.0871582 69.75793457 C-33.25 69.25 -33.25 69.25 -35.03466797 67.40002441 C-38.32733832 61.57501408 -35.47684935 51.48518195 -33.90625 45.1796875 C-32.13213609 39.96294779 -28.87635525 36.12862104 -24.25 33.25 C-21.28037377 32.37011075 -18.30403358 31.75567876 -15.25 31.25 C-16.1575 30.693125 -17.065 30.13625 -18 29.5625 C-22.08777047 26.65389409 -24.65501434 24.03495698 -26.25 19.25 C-26.81384129 13.55737162 -26.55719906 9.10055862 -23.25 4.25 C-16.15253589 -2.68974268 -8.83890852 -4.75941228 0 0 Z " fill="#010202" transform="translate(73.25,58.75)"/>
<path d="M0 0 C1.2684375 0.01933594 1.2684375 0.01933594 2.5625 0.0390625 C3.408125 0.02617187 4.25375 0.01328125 5.125 0 C7.5625 0.6640625 7.5625 0.6640625 9.45703125 3.15625 C11.37873353 5.96916865 11.37873353 5.96916865 14.76171875 6.3359375 C16.48841797 6.37460938 16.48841797 6.37460938 18.25 6.4140625 C24.50739093 6.60895343 24.50739093 6.60895343 25.5625 7.6640625 C25.66073996 9.14055126 25.69223519 10.62181667 25.6875 12.1015625 C25.69136719 13.30619141 25.69136719 13.30619141 25.6953125 14.53515625 C25.5625 16.6640625 25.5625 16.6640625 24.5625 18.6640625 C24.45832401 20.07680363 24.40741497 21.49373054 24.38671875 22.91015625 C24.36287109 23.74740234 24.33902344 24.58464844 24.31445312 25.44726562 C24.27158515 27.21264676 24.24027954 28.97834761 24.22070312 30.74414062 C24.19298828 31.58267578 24.16527344 32.42121094 24.13671875 33.28515625 C24.12213623 34.0527124 24.10755371 34.82026855 24.0925293 35.61108398 C23.5625 37.6640625 23.5625 37.6640625 22.00708008 39.4128418 C18.65538501 41.12835535 15.55458446 41.09394899 11.875 41.0625 C10.76572144 41.06680527 10.76572144 41.06680527 9.6340332 41.07119751 C8.07404818 41.07323453 6.5140374 41.06772995 4.95410156 41.05517578 C2.57038092 41.0391156 0.1883556 41.05503529 -2.1953125 41.07421875 C-3.7135454 41.07223625 -5.23177724 41.06839244 -6.75 41.0625 C-7.81577271 41.07160904 -7.81577271 41.07160904 -8.90307617 41.0809021 C-11.93990906 41.03787877 -14.16068498 40.80574601 -16.88208008 39.4128418 C-18.80999402 37.24526252 -18.95710117 36.15997196 -19.01171875 33.28515625 C-19.03943359 32.44662109 -19.06714844 31.60808594 -19.09570312 30.74414062 C-19.10537109 29.87208984 -19.11503906 29.00003906 -19.125 28.1015625 C-19.16702239 26.37100389 -19.21243193 24.6405232 -19.26171875 22.91015625 C-19.27291748 22.14372803 -19.28411621 21.3772998 -19.2956543 20.58764648 C-19.32114221 18.57992317 -19.32114221 18.57992317 -20.4375 16.6640625 C-20.53222912 15.14561048 -20.5673841 13.62295866 -20.5625 12.1015625 C-20.56636719 10.89306641 -20.56636719 10.89306641 -20.5703125 9.66015625 C-20.4375 7.6640625 -20.4375 7.6640625 -19.4375 6.6640625 C-16.17081463 6.50004482 -12.90666731 6.40917263 -9.63671875 6.3359375 C-4.80579907 5.32138538 -4.47653181 1.21956796 0 0 Z M1.5625 4.6640625 C0.9025 5.3240625 0.2425 5.9840625 -0.4375 6.6640625 C1.5425 6.6640625 3.5225 6.6640625 5.5625 6.6640625 C4.2425 6.0040625 2.9225 5.3440625 1.5625 4.6640625 Z " fill="#040302" transform="translate(61.4375,-0.6640625)"/>
<path d="M0 0 C5.44899783 4.03587599 8.28134348 8.05449567 9.5 14.8125 C9.59119541 21.19617856 8.77223035 25.84747553 4.5 30.8125 C-0.3374402 35.43961671 -4.22008445 37.50880412 -10.875 38.125 C-17.14336501 37.58462371 -21.6365462 36.18064348 -25.875 31.375 C-30.36165969 25.77294168 -31.06608612 21.30104039 -30.9375 14.1484375 C-30.14888227 8.13522734 -27.38381887 4.17082299 -22.7421875 0.375 C-15.96708766 -3.70706852 -6.82801638 -4.02547234 0 0 Z " fill="#42B860" transform="translate(36.5,43.1875)"/>
<path d="M0 0 C1.08539063 -0.02900391 2.17078125 -0.05800781 3.2890625 -0.08789062 C9.58803007 -0.13794355 13.51079366 -0.00807645 18.25 4.3125 C22.7874593 10.79458471 23.74651242 20.54483901 23.25 28.3125 C20.87953469 30.68296531 20.41595828 30.56433138 17.19921875 30.57128906 C16.36495361 30.57759338 15.53068848 30.58389771 14.67114258 30.59039307 C13.3179895 30.58432037 13.3179895 30.58432037 11.9375 30.578125 C10.55050903 30.58099518 10.55050903 30.58099518 9.13549805 30.58392334 C7.17854541 30.58528566 5.22158376 30.58158596 3.26464844 30.57324219 C0.2621641 30.56254334 -2.73972187 30.57313591 -5.7421875 30.5859375 C-7.64062633 30.58461591 -9.53906478 30.58205354 -11.4375 30.578125 C-12.33960205 30.58217346 -13.2417041 30.58622192 -14.17114258 30.59039307 C-15.42254028 30.58093658 -15.42254028 30.58093658 -16.69921875 30.57128906 C-17.43487061 30.56969788 -18.17052246 30.56810669 -18.9284668 30.56646729 C-20.75 30.3125 -20.75 30.3125 -22.75 28.3125 C-23.01573872 19.49250548 -22.04861927 10.17429817 -16.1875 3.3125 C-11.20756702 -0.77359886 -6.22681972 0.05468518 0 0 Z " fill="#008FC8" transform="translate(63.75,94.6875)"/>
<path d="M0 0 C2.1640625 -0.29296875 2.1640625 -0.29296875 4.625 -0.1875 C5.44226563 -0.16042969 6.25953125 -0.13335937 7.1015625 -0.10546875 C8.04128906 -0.05326172 8.04128906 -0.05326172 9 0 C9.33 1.32 9.66 2.64 10 4 C10.886875 3.731875 11.77375 3.46375 12.6875 3.1875 C16 3 16 3 18.9375 5.0625 C21 8 21 8 20.8125 11.3125 C20.544375 12.199375 20.27625 13.08625 20 14 C21.32 14.33 22.64 14.66 24 15 C24.08131463 16.43655854 24.13933559 17.8744483 24.1875 19.3125 C24.23970703 20.51326172 24.23970703 20.51326172 24.29296875 21.73828125 C23.93377312 24.51127154 23.00644744 25.15810249 21 27 C21.061875 27.78375 21.12375 28.5675 21.1875 29.375 C21 32 21 32 18.25 34.875 C15 37 15 37 12.625 36.8125 C12.08875 36.544375 11.5525 36.27625 11 36 C10.649375 36.66 10.29875 37.32 9.9375 38 C8 40 8 40 4.5625 40.5 C0.5589924 39.9381042 -0.55945303 39.12390012 -3 36 C-4.485 36.495 -4.485 36.495 -6 37 C-8.42919294 35.38053804 -10.17736044 34.19771651 -12 32 C-12.125 29.4375 -12.125 29.4375 -12 27 C-12.66 26.360625 -13.32 25.72125 -14 25.0625 C-16 23 -16 23 -16.375 19.9375 C-16 17 -16 17 -14 14 C-13.01 14 -12.02 14 -11 14 C-11.2475 12.9275 -11.495 11.855 -11.75 10.75 C-12 7 -12 7 -10.4375 4.5625 C-7.4143876 2.62460744 -5.52386535 2.92339423 -2 3 C-1.34 2.01 -0.68 1.02 0 0 Z " fill="#5F80A4" transform="translate(98,41)"/>
<path d="M0 0 C4.53564723 2.14041779 8.18848907 4.14226672 10 9 C10.57246494 13.15594674 10.42248871 16.88164753 8.9375 20.8125 C5.72549613 24.43895598 2.56664805 26.77585779 -2.28125 27.19921875 C-6.53349465 26.95117115 -8.56218711 26.35397638 -11.9375 23.625 C-15.44690879 19.15847972 -16.45711378 16.84374848 -16.3125 11.28515625 C-15.81912092 7.67732172 -14.41635627 5.67070956 -12 3 C-7.94153843 0.35317724 -4.81604946 -0.77056791 0 0 Z " fill="#F2B67B" transform="translate(67,60)"/>
<path d="M0 0 C2.1640625 -0.29296875 2.1640625 -0.29296875 4.625 -0.1875 C5.44226563 -0.16042969 6.25953125 -0.13335937 7.1015625 -0.10546875 C8.04128906 -0.05326172 8.04128906 -0.05326172 9 0 C9.33 1.32 9.66 2.64 10 4 C10.886875 3.731875 11.77375 3.46375 12.6875 3.1875 C16 3 16 3 18.9375 5.0625 C21 8 21 8 20.8125 11.3125 C20.544375 12.199375 20.27625 13.08625 20 14 C21.32 14.33 22.64 14.66 24 15 C24.08131463 16.43655854 24.13933559 17.8744483 24.1875 19.3125 C24.23970703 20.51326172 24.23970703 20.51326172 24.29296875 21.73828125 C23.93377312 24.51127154 23.00644744 25.15810249 21 27 C21.061875 27.78375 21.12375 28.5675 21.1875 29.375 C21 32 21 32 18.25 34.875 C15 37 15 37 12.625 36.8125 C12.08875 36.544375 11.5525 36.27625 11 36 C10.649375 36.66 10.29875 37.32 9.9375 38 C8 40 8 40 4.5625 40.5 C0.5589924 39.9381042 -0.55945303 39.12390012 -3 36 C-4.485 36.495 -4.485 36.495 -6 37 C-8.42919294 35.38053804 -10.17736044 34.19771651 -12 32 C-12.125 29.4375 -12.125 29.4375 -12 27 C-12.66 26.360625 -13.32 25.72125 -14 25.0625 C-16 23 -16 23 -16.375 19.9375 C-16 17 -16 17 -14 14 C-13.01 14 -12.02 14 -11 14 C-11.2475 12.9275 -11.495 11.855 -11.75 10.75 C-12 7 -12 7 -10.4375 4.5625 C-7.4143876 2.62460744 -5.52386535 2.92339423 -2 3 C-1.34 2.01 -0.68 1.02 0 0 Z M2 4 C2 4.99 2 5.98 2 7 C-0.64 7 -3.28 7 -6 7 C-8.09350689 10.4019487 -8.17942163 13.05272412 -8 17 C-9.32 17.33 -10.64 17.66 -12 18 C-12 19.32 -12 20.64 -12 22 C-10.02 22.99 -10.02 22.99 -8 24 C-8 26.31 -8 28.62 -8 31 C-5.01758453 31.77321882 -2.02419525 32.41196203 1 33 C1.33 33.99 1.66 34.98 2 36 C4.43717258 35.72965366 4.43717258 35.72965366 7 35 C7.66 34.01 8.32 33.02 9 32 C12.0625 31.875 12.0625 31.875 15 32 C16.3819554 30.82679541 16.3819554 30.82679541 16.375 27.5625 C16.684375 25.7990625 16.684375 25.7990625 17 24 C17.99 23.34 18.98 22.68 20 22 C20.25030977 19.41619823 20.25030977 19.41619823 20 17 C19.01 16.67 18.02 16.34 17 16 C17 13.69 17 11.38 17 9 C13.86501708 7.14223235 11.62528568 6.79859524 8 7 C7.67 6.01 7.34 5.02 7 4 C5.35 4 3.7 4 2 4 Z " fill="#020304" transform="translate(98,41)"/>
<path d="M0 0 C5.44899783 4.03587599 8.28134348 8.05449567 9.5 14.8125 C9.59119541 21.19617856 8.77223035 25.84747553 4.5 30.8125 C-0.3374402 35.43961671 -4.22008445 37.50880412 -10.875 38.125 C-17.14336501 37.58462371 -21.6365462 36.18064348 -25.875 31.375 C-30.36165969 25.77294168 -31.06608612 21.30104039 -30.9375 14.1484375 C-30.14888227 8.13522734 -27.38381887 4.17082299 -22.7421875 0.375 C-15.96708766 -3.70706852 -6.82801638 -4.02547234 0 0 Z M-24.875 8.375 C-27.17581945 13.24211808 -27.28113802 17.51812006 -26.5 22.8125 C-24.31473658 27.26396251 -21.5605479 30.00135145 -17.5 32.8125 C-12.87900885 34.35283038 -9.05230704 34.3510555 -4.4375 32.75 C0.13020417 29.73725895 3.75296399 26.05360803 5.5 20.8125 C5.89680449 15.55484055 5.39498146 12.25147158 2.5 7.8125 C-1.69079971 3.66640215 -4.84811166 1.65319109 -10.75 1.5 C-17.36358155 1.57780684 -20.40947912 3.556938 -24.875 8.375 Z " fill="#010402" transform="translate(36.5,43.1875)"/>
<path d="M0 0 C0.02684679 2.64590014 0.04676357 5.29153096 0.0625 7.9375 C0.07087891 8.69224609 0.07925781 9.44699219 0.08789062 10.22460938 C0.09652441 12.14994313 0.05224333 14.07535581 0 16 C-1 17 -1 17 -4.14282227 17.11352539 C-5.53402697 17.11336633 -6.92523761 17.10767506 -8.31640625 17.09765625 C-9.04746078 17.0962413 -9.77851532 17.09482635 -10.53172302 17.09336853 C-12.87535632 17.08775408 -15.21889539 17.07519922 -17.5625 17.0625 C-19.14778508 17.05748686 -20.73307166 17.05292363 -22.31835938 17.04882812 C-26.21230543 17.03862921 -30.10604677 17.01905687 -34 17 C-34 11.72 -34 6.44 -34 1 C-24.30769231 2.38461538 -24.30769231 2.38461538 -21 4 C-19.625 7.125 -19.625 7.125 -19 10 C-17.35 9.67 -15.7 9.34 -14 9 C-13.67 7.35 -13.34 5.7 -13 4 C-11.02144235 3.33152803 -9.04213695 2.66526889 -7.0625 2 C-5.96035156 1.62875 -4.85820313 1.2575 -3.72265625 0.875 C-1 0 -1 0 0 0 Z " fill="#315774" transform="translate(81,19)"/>
<path d="M0 0 C12.54 0 25.08 0 38 0 C38 1.65 38 3.3 38 5 C33.33272761 7.63282032 28.38923146 9.6227538 23 10 C22.34 9.34 21.68 8.68 21 8 C18.60822068 8.31470781 16.4569713 8.83320054 14.19140625 9.66015625 C11.13842111 10.13361384 9.1730161 9.23254295 6.3125 8.125 C5.33925781 7.75632812 4.36601563 7.38765625 3.36328125 7.0078125 C1 6 1 6 0 5 C0 3.35 0 1.7 0 0 Z " fill="#3D6C8E" transform="translate(45,10)"/>
<path d="M0 0 C3.75999106 0.93999776 5.2473603 2.51105689 7.5 5.625 C7.5 9.16861243 7.15850044 11.49091591 5.375 14.5625 C2.31547541 16.2962306 -0.06817525 16.04645216 -3.5 15.625 C-5.9375 14 -5.9375 14 -7.5 11.625 C-8.0625 8.6875 -8.0625 8.6875 -7.5 5.625 C-5.20985284 2.6150923 -3.70864386 0.92716097 0 0 Z " fill="#D1DFE5" transform="translate(102.5,52.375)"/>
<path d="M0 0 C3.37202113 2.09814648 5.91984861 4.11145498 7 8 C7 13.16431564 6.82247883 15.03709795 3.4375 19 C-1.05689497 21.61492071 -2.87642282 21.81326622 -8 21 C-11.883836 17.85987727 -13.8023937 15.71258797 -14.375 10.75 C-13.88072704 5.80727042 -12.46171699 4.46171699 -9 1 C-5.89951072 -0.55024464 -3.42105782 -0.28992015 0 0 Z M-11 8 C-11.6767545 11.68455227 -11.49791771 13.24316508 -9.4375 16.375 C-6.04129157 18.63913895 -3.99900698 18.64269755 0 18 C2.67838573 16.06873898 2.67838573 16.06873898 4 13 C4 9.15050705 3.86589381 6.95866815 1.25 4.0625 C-4.42745432 1.38147991 -7.31067368 3.15117112 -11 8 Z " fill="#07090C" transform="translate(106,50)"/>
<path d="M0 0 C4.13973087 0.77018249 6.38363208 1.97025571 8.75 5.375 C12.55328328 12.07660527 13.46348161 20.39027875 13 28 C11 30 11 30 9.16500854 30.24050903 C8.42332428 30.23606781 7.68164001 30.23162659 6.91748047 30.22705078 C5.65639969 30.22682419 5.65639969 30.22682419 4.36984253 30.22659302 C3.46146637 30.21627045 2.55309021 30.20594788 1.6171875 30.1953125 C0.68778351 30.1924826 -0.24162048 30.18965271 -1.19918823 30.18673706 C-4.1745885 30.17552069 -7.14969035 30.1504136 -10.125 30.125 C-12.13931858 30.11497208 -14.15364186 30.1058459 -16.16796875 30.09765625 C-21.11209456 30.07557661 -26.05599665 30.04103693 -31 30 C-31 29.67 -31 29.34 -31 29 C-18.13 28.67 -5.26 28.34 8 28 C6.49477426 12.26750451 6.49477426 12.26750451 0 0 Z " fill="#0076A4" transform="translate(74,95)"/>
<path d="M0 0 C-0.89600859 4.91801732 -3.82482598 7.37608362 -7.25 10.8125 C-7.82363281 11.42287109 -8.39726562 12.03324219 -8.98828125 12.66210938 C-13.2781373 16.99593889 -13.2781373 16.99593889 -16.77734375 17.015625 C-19.46665864 15.78676407 -21.06887972 14.21721218 -23 12 C-22.67 11.01 -22.34 10.02 -22 9 C-21.13375 9.495 -21.13375 9.495 -20.25 10 C-17.80116138 11.27075898 -17.80116138 11.27075898 -14 11 C-12.00227459 9.2139349 -10.23147202 7.47070611 -8.4375 5.5 C-3.3902027 0 -3.3902027 0 0 0 Z " fill="#081B0D" transform="translate(37,52)"/>
<path d="M0 0 C4.58151466 1.52717155 7.79607006 3.59214011 10 8 C10.43032996 12.21226823 10.42629046 15.91059104 8.875 19.875 C6.55726392 22.50176755 4.20379402 23.64728697 1 25 C2.84210526 20.26315789 2.84210526 20.26315789 4.125 18.125 C5.94108601 13.71450542 5.38685432 9.9495515 3.625 5.625 C2.26406259 2.91323658 2.26406259 2.91323658 0 2 C0 1.34 0 0.68 0 0 Z " fill="#D5A06C" transform="translate(67,61)"/>
<path d="M0 0 C3.57026711 0.59237616 5.45816451 1.97180604 8.125 4.375 C8.80820313 4.98085938 9.49140625 5.58671875 10.1953125 6.2109375 C12 8 12 8 14 11 C14 12.32 14 13.64 14 15 C11.8125 14.875 11.8125 14.875 9 14 C7.7168401 12.55644511 6.43725584 11.10483706 5.26953125 9.56640625 C3.46409336 7.33877366 1.29178899 5.70247182 -1 4 C-0.67 2.68 -0.34 1.36 0 0 Z " fill="#000000" transform="translate(87,24)"/>
<path d="M0 0 C0.8971875 0.309375 0.8971875 0.309375 1.8125 0.625 C1.25360902 4.12939751 0.21511653 5.46853822 -2.5625 7.625 C-4.74163256 9.37363183 -6.24242955 10.70230826 -7.875 13 C-8.308125 13.53625 -8.74125 14.0725 -9.1875 14.625 C-10.5075 14.625 -11.8275 14.625 -13.1875 14.625 C-13.07800788 10.13582328 -11.89126466 7.96672788 -8.8125 4.875 C-3.09109477 -0.52990196 -3.09109477 -0.52990196 0 0 Z " fill="#000000" transform="translate(40.1875,24.375)"/>
<path d="M0 0 C0.86625 0.556875 0.86625 0.556875 1.75 1.125 C1.75 3.435 1.75 5.745 1.75 8.125 C2.74 8.455 3.73 8.785 4.75 9.125 C4.9375 11.5 4.9375 11.5 4.75 14.125 C3.76 14.785 2.77 15.445 1.75 16.125 C0.55767387 18.17503955 0.55767387 18.17503955 -0.25 20.125 C-0.91 20.125 -1.57 20.125 -2.25 20.125 C-2.91 20.785 -3.57 21.445 -4.25 22.125 C-5.24 21.795 -6.23 21.465 -7.25 21.125 C-6.445625 20.63 -5.64125 20.135 -4.8125 19.625 C-1.80688076 16.69268855 -1.38598813 15.15749024 -1.10546875 11.09375 C-1.32123941 8.15460373 -2.40871105 6.37546427 -4.25 4.125 C-4.91 3.795 -5.57 3.465 -6.25 3.125 C-6.25 2.465 -6.25 1.805 -6.25 1.125 C-2.80384615 -1.09038462 -2.80384615 -1.09038462 0 0 Z " fill="#5A799B" transform="translate(113.25,48.875)"/>
<path d="M0 0 C12.54 0 25.08 0 38 0 C38 1.65 38 3.3 38 5 C37.01 5.33 36.02 5.66 35 6 C35.33 4.35 35.66 2.7 36 1 C24.45 1 12.9 1 1 1 C0.67 2.32 0.34 3.64 0 5 C0 3.35 0 1.7 0 0 Z " fill="#396483" transform="translate(45,10)"/>
<path d="M0 0 C0.66 0.66 1.32 1.32 2 2 C1.625 4.125 1.625 4.125 1 6 C-2.375 6.125 -2.375 6.125 -6 6 C-6.66 5.34 -7.32 4.68 -8 4 C-6.576875 3.566875 -6.576875 3.566875 -5.125 3.125 C-1.94788422 2.23174891 -1.94788422 2.23174891 0 0 Z " fill="#6485AB" transform="translate(112,67)"/>
</svg>
